<?xml version="1.0" encoding="UTF-8"?>
<!DOCTYPE svg PUBLIC "-//W3C//DTD SVG 1.1//EN" "http://www.w3.org/Graphics/SVG/1.1/DTD/svg11.dtd">
<!-- Creator: CorelDRAW -->
<svg xmlns="http://www.w3.org/2000/svg" xml:space="preserve" width="44.1041mm" height="50.1822mm" version="1.1" style="shape-rendering:geometricPrecision; text-rendering:geometricPrecision; image-rendering:optimizeQuality; fill-rule:evenodd; clip-rule:evenodd"
viewBox="0 0 2630.07 2992.53"
 xmlns:xlink="http://www.w3.org/1999/xlink"
 xmlns:xodm="http://www.corel.com/coreldraw/odm/2003">
 <defs>
  <style type="text/css">
   <![CDATA[
    .fil0 {fill:#16A085;fill-rule:nonzero}
   ]]>
  </style>
 </defs>
 <g id="Camada_x0020_1">
  <metadata id="CorelCorpID_0Corel-Layer"/>
  <g id="_2737483246416">
   <path class="fil0" d="M1322.21 0.01c68.77,3.31 126.83,28.03 174.17,74.17 68.57,66.8 95.97,164.42 72.07,257.4 -23.16,89.78 -92.88,162.78 -182.36,188.67 -142.03,41.08 -288.43,-47.11 -324.74,-188.44 -23.73,-92.41 2.93,-189.32 70.49,-256.18 47.38,-46.91 105.77,-72.12 175.17,-75.63l15.2 0 0.01 0.01z"/>
   <path class="fil0" d="M1402.69 2992.52l-175.17 0 -0.11 -180.72c0,-1.9 -1.47,-3.46 -3.33,-3.51 -124.85,-4.6 -247.53,-20.63 -368.05,-48.09 -156.58,-35.71 -311.47,-94.22 -443.33,-185.1 -100.36,-69.15 -191.36,-166.52 -223.21,-286.1 -0.56,-2.14 -2.53,-3.67 -4.81,-3.69l-180.24 0c-2.44,0 -4.44,-2 -4.44,-4.44l0 -165.87c0,-2.74 2.23,-4.97 4.97,-4.97l180.19 -0.06c1.82,0 3.48,-1.06 4.27,-2.68 4.32,-9 8.88,-30.51 14.08,-43.14 79.49,-193.11 287.8,-311.64 476.11,-377.22 92.78,-32.35 188.81,-56.56 288.09,-72.65 1.9,-0.3 3.28,-1.95 3.28,-3.86 0,-0.33 -0.04,-0.66 -0.13,-0.99l-5.78 -22.27c-0.6,-2.28 -1.74,-4.22 -3.32,-5.78l-170.15 -170.14c-1.62,-1.57 -2.6,-3.83 -2.63,-6.19l0 -520.43c0.02,-1.28 0.76,-2.43 1.9,-2.99l347.38 -173.75c1.2,-0.56 2.46,-0.83 3.73,-0.82l80.43 0c2.71,0 4.91,2.2 4.91,4.91l0 515.1c0,3.42 2.77,6.2 6.2,6.2l163.31 0c3.25,0 5.9,-2.62 5.9,-5.84l0 -516.38c0,-2.17 1.74,-3.91 3.86,-3.91l81.06 0c1.76,0.02 3.36,0.42 4.77,1.17l347.08 173.47c0.92,0.48 1.51,1.45 1.51,2.49l0 520.62c0,2.43 -0.97,4.77 -2.69,6.49l-170.49 170.49c-1.53,1.51 -2.51,3.33 -2.95,5.33l-5.65 22.49c-0.02,0.12 -0.04,0.18 -0.05,0.24 -0.4,2.09 0.98,4.13 3.11,4.53 0.06,0.01 0.11,0.02 0.16,0.03 123.95,19.79 241.62,52.22 353.02,97.3 176.46,71.48 372.89,200.6 424.97,395.16 0.49,1.81 2.12,3.04 3.95,3.04l180.7 0c2.74,0 4.97,2.23 4.97,4.97l0 165.88c0,2.48 -2.02,4.5 -4.5,4.5l-180.37 0c-2.18,0.01 -4.03,1.45 -4.57,3.48 -32.02,119.78 -122.31,216.56 -222.73,285.94 -127.19,87.91 -276.11,145.48 -426.67,181.43 -125.43,29.92 -253.7,47.3 -384.82,52.14 -1.73,0.05 -3.1,1.48 -3.1,3.21 0,0 0,0 0,0l-0.64 181.01 0.02 -0.01zm-87.84 -531.93c55.21,0 82.99,0.04 83.34,0.11 2.5,0.5 4.28,2.7 4.27,5.24l0.12 163.04c0,0 0,0 0,0 0,1.2 0.97,2.16 2.15,2.16 0.02,0 0.04,0 0.06,0 104.7,-4.48 207.19,-17.43 307.49,-38.87 156.06,-33.36 313.28,-90.42 438.88,-187.91 41.96,-32.54 76.11,-71.51 102.46,-116.96 0.06,-0.11 0.12,-0.23 0.16,-0.37 0.26,-0.89 -0.24,-1.84 -1.1,-2.09 -0.14,-0.04 -0.28,-0.05 -0.43,-0.05l-146.26 0c-1.16,0 -2.1,-0.94 -2.1,-2.1l0 -168.68c0,-2.36 1.91,-4.27 4.27,-4.27l144.25 0c0.19,0 0.35,-0.02 0.52,-0.07 1.03,-0.27 1.63,-1.36 1.34,-2.42 -0.04,-0.17 -0.11,-0.32 -0.18,-0.46 -21.24,-39.58 -49.4,-74.14 -84.49,-103.67 -42.51,-35.73 -89.06,-66.51 -139.63,-92.35 -126.95,-64.82 -269.67,-104.33 -412.7,-126.48 -1.09,-0.14 -2.07,0.52 -2.28,1.54l-124.26 497.18c-0.28,1.18 -1.32,2.02 -2.51,1.99 -57.47,0.12 -115.26,0.18 -173.35,0.18 -58.13,0 -115.94,-0.05 -173.41,-0.17 -1.17,0.02 -2.21,-0.77 -2.52,-1.93l-124.37 -497.2c-0.23,-0.97 -1.2,-1.62 -2.25,-1.47 -143.05,22.17 -285.77,61.73 -412.73,126.61 -50.55,25.84 -97.07,56.62 -139.57,92.35 -35.1,29.57 -63.27,64.15 -84.51,103.74 -0.07,0.13 -0.14,0.28 -0.17,0.44 -0.29,1.07 0.32,2.15 1.34,2.42 0.16,0.05 0.33,0.07 0.5,0.05l144.26 -0.05c2.35,0 4.27,1.91 4.27,4.27l0.06 168.68c0,1.16 -0.94,2.11 -2.1,2.11l-146.23 0.05c-0.17,0 -0.31,0.02 -0.45,0.06 -0.86,0.25 -1.37,1.18 -1.1,2.07 0.04,0.14 0.1,0.27 0.17,0.39 26.38,45.38 60.54,84.35 102.5,116.89 125.6,97.49 282.89,154.47 438.94,187.79 100.29,21.38 202.8,34.31 307.48,38.75 0.03,0 0.05,0 0.06,0 1.2,0 2.17,-0.97 2.17,-2.15 0,0 0,0 0,0l0.06 -163.07c-0.01,-2.52 1.76,-4.7 4.23,-5.2 0.37,-0.09 28.16,-0.11 83.38,-0.11l-0.01 -0.02z"/>
  </g>
 </g>
</svg>
