<?xml version="1.0" encoding="UTF-8"?>
<!DOCTYPE svg PUBLIC "-//W3C//DTD SVG 1.1//EN" "http://www.w3.org/Graphics/SVG/1.1/DTD/svg11.dtd">
<!-- Creator: CorelDRAW -->
<svg xmlns="http://www.w3.org/2000/svg" xml:space="preserve" width="7.2894mm" height="10.7198mm" version="1.1" style="shape-rendering:geometricPrecision; text-rendering:geometricPrecision; image-rendering:optimizeQuality; fill-rule:evenodd; clip-rule:evenodd"
viewBox="0 0 1.8 2.65"
 xmlns:xlink="http://www.w3.org/1999/xlink"
 xmlns:xodm="http://www.corel.com/coreldraw/odm/2003">
 <defs>
  <style type="text/css">
   <![CDATA[
    .str0 {stroke:white;stroke-width:0.05;stroke-miterlimit:22.9256}
    .fil0 {fill:white}
   ]]>
  </style>
 </defs>
 <g id="Camada_x0020_1">
  <metadata id="CorelCorpID_0Corel-Layer"/>
  <path class="fil0 str0" d="M0.13 0.89c0.01,-0.42 0.35,-0.76 0.77,-0.76 0.42,0 0.76,0.34 0.77,0.76 0,0.09 -0.03,0.19 -0.06,0.27 -0.03,0.08 -0.06,0.15 -0.09,0.21 -0.07,0.16 -0.16,0.32 -0.25,0.48 -0.12,0.21 -0.24,0.41 -0.37,0.61 -0,0 -0,0 -0,0 -0,0 -0,-0 -0,-0 -0.13,-0.2 -0.25,-0.4 -0.37,-0.61 -0.09,-0.16 -0.18,-0.32 -0.25,-0.48 -0.03,-0.06 -0.06,-0.13 -0.09,-0.21 -0.03,-0.09 -0.06,-0.18 -0.06,-0.27zm0.77 -0.43c-0.21,0 -0.39,0.17 -0.39,0.39 0,0.21 0.17,0.39 0.39,0.39 0.21,0 0.39,-0.17 0.39,-0.39 0,-0.21 -0.17,-0.39 -0.39,-0.39zm-0.28 0.39c0,-0.15 0.12,-0.28 0.28,-0.28 0.15,0 0.28,0.12 0.28,0.28 0,0.15 -0.12,0.28 -0.28,0.28 -0.15,0 -0.28,-0.12 -0.28,-0.28zm1.15 0.15c0.01,-0.07 0.01,-0.14 0,-0.21 -0.06,-0.43 -0.43,-0.76 -0.87,-0.76 -0.44,0 -0.81,0.33 -0.87,0.76 -0.01,0.07 -0.01,0.14 0,0.21 0.01,0.05 0.02,0.11 0.04,0.16 0.04,0.11 0.08,0.22 0.14,0.34 0.05,0.11 0.1,0.2 0.14,0.28 0.17,0.31 0.34,0.59 0.5,0.83 0.01,0.01 0.02,0.02 0.04,0.02 0.02,0 0.03,-0.01 0.04,-0.02 0.17,-0.24 0.33,-0.52 0.5,-0.83 0.04,-0.08 0.09,-0.17 0.14,-0.28 0.06,-0.12 0.1,-0.23 0.14,-0.34 0.02,-0.05 0.03,-0.11 0.04,-0.16z"/>
 </g>
</svg>
