<?xml version="1.0" encoding="UTF-8"?>
<!DOCTYPE svg PUBLIC "-//W3C//DTD SVG 1.1//EN" "http://www.w3.org/Graphics/SVG/1.1/DTD/svg11.dtd">
<!-- Creator: CorelDRAW -->
<svg xmlns="http://www.w3.org/2000/svg" xml:space="preserve" width="11.0527mm" height="9.9474mm" version="1.1" style="shape-rendering:geometricPrecision; text-rendering:geometricPrecision; image-rendering:optimizeQuality; fill-rule:evenodd; clip-rule:evenodd"
viewBox="0 0 3.87 3.48"
 xmlns:xlink="http://www.w3.org/1999/xlink"
 xmlns:xodm="http://www.corel.com/coreldraw/odm/2003">
 <defs>
  <style type="text/css">
   <![CDATA[
    .str0 {stroke:white;stroke-width:0.39;stroke-miterlimit:22.9256}
    .fil0 {fill:none}
    .fil1 {fill:white;fill-rule:nonzero}
   ]]>
  </style>
 </defs>
 <g id="Camada_x0020_1">
  <metadata id="CorelCorpID_0Corel-Layer"/>
  <path class="fil0 str0" d="M0.19 0.39l0 2.71c0,0.05 0.02,0.1 0.06,0.14 0.04,0.04 0.09,0.06 0.14,0.06l3.09 0c0.05,0 0.1,-0.02 0.14,-0.06 0.04,-0.04 0.06,-0.09 0.06,-0.14l0 -2.71c0,-0.05 -0.02,-0.1 -0.06,-0.14 -0.04,-0.04 -0.09,-0.06 -0.14,-0.06l-3.09 0c-0.05,0 -0.1,0.02 -0.14,0.06 -0.04,0.04 -0.06,0.09 -0.06,0.14l0 -0z"/>
  <polygon class="fil1" points="2.32,2.9 3.09,2.9 3.09,3.29 2.32,3.29 "/>
  <path class="fil1" d="M1.93 1.74c0.16,0 0.29,-0.13 0.29,-0.29 0,-0.16 -0.13,-0.29 -0.29,-0.29 -0.16,0 -0.29,0.13 -0.29,0.29 0,0.16 0.13,0.29 0.29,0.29zm0 0.14c-0.19,0 -0.58,0.1 -0.58,0.29l0 0.14 1.16 0 0 -0.14c0,-0.19 -0.39,-0.29 -0.58,-0.29l0 0z"/>
  <path class="fil1" d="M2.66 1.45c-0.12,0 -0.22,0.1 -0.22,0.22 0,0.12 0.1,0.22 0.22,0.22 0.12,0 0.22,-0.1 0.22,-0.22 0,-0.12 -0.1,-0.22 -0.22,-0.22zm0 0.54c-0.03,0 -0.07,0 -0.12,0.01 0.04,0.05 0.07,0.1 0.07,0.17l0 0.14 0.48 0 0 -0.11c0,-0.14 -0.29,-0.22 -0.43,-0.22zm-0.33 0.08c-0.06,0.03 -0.1,0.08 -0.1,0.13l0 0.01 0.19 0 0 -0.05c0,-0.02 -0.01,-0.03 -0.03,-0.06 -0.02,-0.02 -0.04,-0.03 -0.06,-0.04l0 0zm-1.12 -0.63c-0.12,0 -0.22,0.1 -0.22,0.22 0,0.12 0.1,0.22 0.22,0.22 0.12,0 0.22,-0.1 0.22,-0.22 0,-0.12 -0.1,-0.22 -0.22,-0.22l0 0zm0 0.54c-0.14,0 -0.43,0.07 -0.43,0.22l0 0.11 0.48 0 0 -0.14c0,-0.07 0.03,-0.12 0.07,-0.17 -0.04,-0.01 -0.08,-0.01 -0.12,-0.01l0 0zm0.33 0.08c-0.02,0.01 -0.04,0.03 -0.06,0.04 -0.03,0.02 -0.03,0.04 -0.03,0.06l0 0.05 0.19 0 0 -0.01c0,-0.05 -0.04,-0.1 -0.1,-0.13z"/>
 </g>
</svg>
