<?xml version="1.0" encoding="UTF-8"?>
<!DOCTYPE svg PUBLIC "-//W3C//DTD SVG 1.1//EN" "http://www.w3.org/Graphics/SVG/1.1/DTD/svg11.dtd">
<!-- Creator: CorelDRAW -->
<svg xmlns="http://www.w3.org/2000/svg" xml:space="preserve" width="120.65mm" height="120.65mm" version="1.1" style="shape-rendering:geometricPrecision; text-rendering:geometricPrecision; image-rendering:optimizeQuality; fill-rule:evenodd; clip-rule:evenodd"
viewBox="0 0 9671.78 9671.78"
 xmlns:xlink="http://www.w3.org/1999/xlink"
 xmlns:xodm="http://www.corel.com/coreldraw/odm/2003">
 <defs>
  <style type="text/css">
   <![CDATA[
    .fil1 {fill:#16A085;fill-rule:nonzero}
    .fil0 {fill:#3E3E3E;fill-rule:nonzero}
   ]]>
  </style>
 </defs>
 <g id="Camada_x0020_1">
  <metadata id="CorelCorpID_0Corel-Layer"/>
  <rect class="fil0" width="9671.78" height="9671.78"/>
  <g id="_2737483246416">
   <path class="fil1" d="M4845.51 2824.5c92.45,4.45 170.49,37.69 234.13,99.7 92.17,89.8 129.02,221.02 96.88,346.02 -31.13,120.69 -124.86,218.82 -245.14,253.62 -190.93,55.22 -387.74,-63.33 -436.54,-253.31 -31.9,-124.22 3.94,-254.5 94.75,-344.38 63.69,-63.07 142.19,-96.95 235.47,-101.67l20.43 0 0.01 0.02z"/>
   <path class="fil1" d="M4953.69 6847.27l-235.48 0 -0.15 -242.94c0,-2.56 -1.98,-4.65 -4.47,-4.72 -167.84,-6.18 -332.74,-27.73 -494.76,-64.65 -210.49,-48.01 -418.7,-126.66 -595.96,-248.83 -134.91,-92.96 -257.24,-223.85 -300.05,-384.6 -0.75,-2.88 -3.41,-4.93 -6.46,-4.95l-242.3 0c-3.29,0 -5.97,-2.69 -5.97,-5.97l0 -222.98c0,-3.69 3,-6.68 6.69,-6.68l242.23 -0.08c2.45,0 4.68,-1.42 5.74,-3.61 5.81,-12.1 11.94,-41.01 18.93,-57.99 106.86,-259.6 386.89,-418.94 640.03,-507.09 124.72,-43.48 253.81,-76.04 387.27,-97.66 2.55,-0.41 4.41,-2.62 4.41,-5.19 0,-0.45 -0.05,-0.89 -0.17,-1.33l-7.78 -29.93c-0.8,-3.07 -2.33,-5.68 -4.47,-7.77l-228.73 -228.72c-2.18,-2.12 -3.5,-5.15 -3.54,-8.32l0 -699.6c0.03,-1.72 1.02,-3.27 2.56,-4.02l466.98 -233.57c1.61,-0.75 3.3,-1.11 5.02,-1.1l108.12 0c3.65,0 6.61,2.96 6.61,6.61l0 692.44c0,4.6 3.72,8.33 8.33,8.33l219.53 0c4.37,0 7.93,-3.52 7.93,-7.86l0 -694.16c0,-2.92 2.33,-5.26 5.19,-5.26l108.97 0c2.36,0.02 4.51,0.56 6.41,1.57l466.58 233.19c1.23,0.64 2.04,1.95 2.04,3.35l0 699.86c0,3.26 -1.31,6.41 -3.62,8.72l-229.19 229.19c-2.05,2.04 -3.37,4.48 -3.97,7.16l-7.59 30.23c-0.03,0.16 -0.05,0.25 -0.07,0.33 -0.54,2.81 1.32,5.55 4.18,6.08 0.08,0.02 0.15,0.03 0.22,0.04 166.63,26.61 324.81,70.2 474.56,130.8 237.21,96.08 501.27,269.66 571.28,531.21 0.67,2.44 2.85,4.09 5.31,4.09l242.91 0c3.69,0 6.68,3 6.68,6.69l0 222.98c0,3.33 -2.71,6.04 -6.05,6.04l-242.46 0c-2.93,0.02 -5.42,1.95 -6.14,4.68 -43.05,161.02 -164.42,291.12 -299.41,384.39 -170.97,118.17 -371.17,195.56 -573.57,243.89 -168.61,40.23 -341.05,63.59 -517.31,70.09 -2.32,0.07 -4.17,1.99 -4.17,4.32 0,0 0,0 0,0l-0.87 243.32 0.02 -0.02zm-118.08 -715.06c74.22,0 111.56,0.05 112.04,0.15 3.37,0.67 5.76,3.62 5.74,7.04l0.16 219.17c0,0 0,0 0,0 0,1.61 1.3,2.9 2.89,2.9 0.03,0 0.06,0 0.08,0 140.75,-6.02 278.52,-23.43 413.35,-52.25 209.79,-44.85 421.14,-121.54 589.98,-252.6 56.41,-43.74 102.31,-96.13 137.73,-157.23 0.08,-0.14 0.16,-0.3 0.21,-0.5 0.34,-1.2 -0.33,-2.47 -1.48,-2.81 -0.19,-0.05 -0.38,-0.07 -0.58,-0.07l-196.61 0c-1.56,0 -2.82,-1.27 -2.82,-2.82l0 -226.76c0,-3.17 2.57,-5.74 5.74,-5.74l193.92 0c0.26,0 0.47,-0.03 0.7,-0.09 1.39,-0.37 2.19,-1.83 1.8,-3.25 -0.05,-0.22 -0.14,-0.42 -0.25,-0.62 -28.55,-53.2 -66.41,-99.66 -113.58,-139.36 -57.15,-48.03 -119.72,-89.41 -187.7,-124.14 -170.65,-87.14 -362.52,-140.25 -554.78,-170.03 -1.46,-0.19 -2.78,0.71 -3.07,2.08l-167.04 668.35c-0.38,1.59 -1.78,2.71 -3.37,2.67 -77.26,0.16 -154.94,0.25 -233.04,0.25 -78.14,0 -155.85,-0.07 -233.11,-0.22 -1.57,0.03 -2.97,-1.03 -3.38,-2.6l-167.19 -668.38c-0.3,-1.31 -1.62,-2.17 -3.03,-1.98 -192.3,29.8 -384.16,82.99 -554.82,170.2 -67.95,34.74 -130.48,76.11 -187.62,124.14 -47.18,39.75 -85.05,86.24 -113.61,139.46 -0.09,0.17 -0.18,0.38 -0.23,0.59 -0.38,1.43 0.42,2.89 1.8,3.25 0.22,0.06 0.45,0.09 0.67,0.07l193.93 -0.07c3.16,0 5.74,2.57 5.74,5.74l0.08 226.76c0,1.56 -1.27,2.83 -2.82,2.83l-196.58 0.07c-0.22,0 -0.42,0.03 -0.61,0.08 -1.16,0.34 -1.84,1.59 -1.48,2.78 0.06,0.18 0.13,0.37 0.22,0.53 35.46,61 81.38,113.38 137.79,157.13 168.84,131.05 380.28,207.66 590.06,252.44 134.82,28.75 272.61,46.13 413.34,52.09 0.04,0 0.07,0 0.08,0 1.61,0 2.92,-1.3 2.92,-2.89 0,0 0,0 0,0l0.08 -219.21c-0.02,-3.38 2.36,-6.32 5.68,-6.99 0.5,-0.12 37.86,-0.15 112.09,-0.15l-0.02 -0.02z"/>
  </g>
 </g>
</svg>
